HIERARCHY
ROOT Hips
{
 OFFSET 0.000000 0.000000 0.000000
 CHANNELS 6 Xposition Yposition Zposition Yrotation Xrotation Zrotation
 JOINT Chest
 {
  OFFSET 0.000000 9.588913 -0.003946
  CHANNELS 3 Yrotation Xrotation Zrotation
  JOINT Chest2
  {
   OFFSET 0.000000 9.541882 0.008053
   CHANNELS 3 Yrotation Xrotation Zrotation
   JOINT Chest3
   {
    OFFSET 0.000000 9.501360 0.000000
    CHANNELS 3 Yrotation Xrotation Zrotation
    JOINT Chest4
    {
     OFFSET 0.000000 9.491660 0.000000
     CHANNELS 3 Yrotation Xrotation Zrotation
     JOINT Neck
     {
      OFFSET 0.000000 14.331917 0.000000
      CHANNELS 3 Yrotation Xrotation Zrotation
      JOINT Head
      {
       OFFSET 0.000000 8.884799 0.017034
       CHANNELS 3 Yrotation Xrotation Zrotation
       End Site
       {
        OFFSET 0.000000 16.896195 0.008993
       }
      }
     }
     JOINT RightCollar
     {
      OFFSET -2.923010 9.499495 0.000000
      CHANNELS 3 Yrotation Xrotation Zrotation
      JOINT RightShoulder
      {
       OFFSET -13.795216 0.000000 0.000000
       CHANNELS 3 Yrotation Xrotation Zrotation
       JOINT RightElbow
       {
        OFFSET -30.272209 0.000000 0.000000
        CHANNELS 3 Yrotation Xrotation Zrotation
        JOINT RightWrist
        {
         OFFSET -24.478199 0.000000 0.000000
         CHANNELS 3 Yrotation Xrotation Zrotation
         End Site
         {
          OFFSET -18.090752 0.000000 0.000000
         }
        }
       }
      }
     }
     JOINT LeftCollar
     {
      OFFSET 2.923010 9.499495 0.000000
      CHANNELS 3 Yrotation Xrotation Zrotation
      JOINT LeftShoulder
      {
       OFFSET 13.795216 0.000000 0.000000
       CHANNELS 3 Yrotation Xrotation Zrotation
       JOINT LeftElbow
       {
        OFFSET 30.272209 0.000000 0.000000
        CHANNELS 3 Yrotation Xrotation Zrotation
        JOINT LeftWrist
        {
         OFFSET 24.478199 0.000000 0.000000
         CHANNELS 3 Yrotation Xrotation Zrotation
         End Site
         {
          OFFSET 18.090752 0.000000 0.000000
         }
        }
       }
      }
     }
    }
   }
  }
 }
 JOINT RightHip
 {
  OFFSET -7.826875 0.019532 0.001973
  CHANNELS 3 Yrotation Xrotation Zrotation
  JOINT RightKnee
  {
   OFFSET 0.000000 -40.546152 -0.001885
   CHANNELS 3 Yrotation Xrotation Zrotation
   JOINT RightAnkle
   {
    OFFSET 0.000000 -39.417092 -0.003189
    CHANNELS 3 Yrotation Xrotation Zrotation
    JOINT RightToe
    {
     OFFSET 0.000000 -7.579396 17.243563
     CHANNELS 3 Yrotation Xrotation Zrotation
     End Site
     {
      OFFSET 0.000000 -1.500329 6.694466
     }
    }
   }
  }
 }
 JOINT LeftHip
 {
  OFFSET 7.826875 0.019532 0.001973
  CHANNELS 3 Yrotation Xrotation Zrotation
  JOINT LeftKnee
  {
   OFFSET 0.000000 -40.546152 -0.001885
   CHANNELS 3 Yrotation Xrotation Zrotation
   JOINT LeftAnkle
   {
    OFFSET 0.000000 -39.417092 -0.003189
    CHANNELS 3 Yrotation Xrotation Zrotation
    JOINT LeftToe
    {
     OFFSET 0.000000 -7.579396 17.243563
     CHANNELS 3 Yrotation Xrotation Zrotation
     End Site
     {
      OFFSET 0.000000 -1.500329 6.694466
     }
    }
   }
  }
 }
}
MOTION
Frames: 13
Frame Time: 0.008333
0.000000 87.345680 0.000000 0.000000 -5.767889 0.000000 0.000000 11.653876 0.000000 0.000000 -5.885988 0.000000 0.000000 -0.000000 0.000000 0.000000 -0.000000 0.000000 0.000000 12.528808 0.000000 0.000000 0.711711 0.000000 0.000000 -0.000000 0.000000 0.000000 -0.000000 0.000000 2.309063 -0.000000 0.000000 -2.309063 -0.000000 -0.000000 0.000000 -0.000000 0.000000 0.000000 0.000000 0.000000 -2.309063 0.000000 0.000000 2.309063 -0.000000 0.000000 0.000000 8.520374 0.000000 0.000000 1.905768 0.000000 -0.000000 -4.658254 0.000000 0.000000 -0.000000 0.000000 0.000000 8.520374 0.000000 0.000000 1.905768 0.000000 -0.000000 -4.658254 0.000000 0.000000 -0.000000 0.000000
-17.320525 88.380242 1.742744 -141.732063 -10.996664 0.218677 1.719181 5.012774 1.019885 0.951909 2.854175 0.675695 1.195520 3.565918 0.852297 0.951909 2.854175 0.675695 -5.154235 14.496535 -0.473306 -5.384905 -10.411404 0.681851 -0.779540 0.690340 -3.241774 -8.969934 1.516111 87.549853 7.017642 -4.375692 3.191123 0.564389 -6.930232 1.474549 -3.002301 1.035491 -0.990021 -0.654944 -1.547512 -89.866133 -0.155366 -8.332145 -1.919982 -6.284874 -5.106409 2.358388 -9.195614 12.294985 -12.550607 2.200213 0.527558 0.138497 -2.759695 -3.538700 8.485947 0.011042 -0.207790 0.036378 13.906450 9.888129 10.160516 12.920932 1.462186 0.942317 5.699526 -1.522725 -7.404467 0.070885 0.329043 0.023482
-17.328035 88.379498 1.742665 -141.742272 -11.006215 0.227047 1.724301 5.012684 1.020877 0.954563 2.854148 0.676611 1.198845 3.565877 0.853463 0.954563 2.854148 0.676611 -5.157274 14.503277 -0.472726 -5.388380 -10.404167 0.683164 -0.782647 0.700201 -3.235761 -8.960378 1.508732 87.534673 7.001498 -4.385814 3.188851 0.565951 -6.931057 1.468110 -2.999204 1.040969 -0.988261 -0.635620 -1.533082 -89.866198 -0.165977 -8.326044 -1.917071 -6.276747 -5.102695 2.354715 -9.189552 12.297622 -12.567315 2.206302 0.543222 0.140806 -2.756148 -3.551095 8.482566 0.010823 -0.210219 0.037804 13.904554 9.915037 10.156637 12.936533 1.446590 0.929106 5.699723 -1.518255 -7.393511 0.070565 0.329130 0.022962
-17.336996 88.378631 1.742471 -141.750220 -11.018860 0.236140 1.726071 5.015972 1.021539 0.955569 2.855852 0.677635 1.200114 3.568002 0.854756 0.955569 2.855852 0.677635 -5.156018 14.506367 -0.473226 -5.386854 -10.400957 0.682329 -0.776037 0.703834 -3.228216 -8.949315 1.498557 87.515832 6.982260 -4.398540 3.183206 0.565195 -6.927694 1.468804 -2.993483 1.039487 -0.988361 -0.619356 -1.519551 -89.865819 -0.179457 -8.316989 -1.917089 -6.271560 -5.100047 2.350754 -9.190916 12.303504 -12.587464 2.206933 0.557866 0.142575 -2.745823 -3.562957 8.482089 0.010268 -0.212600 0.037616 13.898786 9.944361 10.151126 12.951354 1.434248 0.918311 5.699738 -1.515404 -7.382533 0.070275 0.328604 0.021285
-17.347044 88.377641 1.742239 -141.754615 -11.033341 0.245542 1.725081 5.021169 1.021728 0.955145 2.858463 0.678321 1.199595 3.571264 0.855618 0.955145 2.858463 0.678321 -5.152003 14.508244 -0.474767 -5.382028 -10.399142 0.679740 -0.759965 0.702921 -3.217968 -8.942524 1.488828 87.495605 6.963841 -4.411284 3.175545 0.562312 -6.923626 1.475194 -2.986018 1.036788 -0.990262 -0.607562 -1.511019 -89.861065 -0.194462 -8.306442 -1.923321 -6.268333 -5.093767 2.343777 -9.200475 12.311325 -12.609960 2.205875 0.571680 0.145265 -2.737719 -3.574259 8.482702 0.009216 -0.214256 0.036103 13.889774 9.973391 10.142990 12.964959 1.426072 0.911119 5.701837 -1.514896 -7.371986 0.070167 0.328382 0.019267
-17.357523 88.376480 1.742206 -141.754799 -11.046219 0.254221 1.723967 5.024880 1.022248 0.954374 2.860513 0.678972 1.198641 3.573827 0.856430 0.954374 2.860513 0.678972 -5.148674 14.512281 -0.477342 -5.377709 -10.395028 0.676206 -0.745744 0.700841 -3.206964 -8.939320 1.483313 87.478000 6.950296 -4.420388 3.167955 0.557169 -6.922500 1.482035 -2.982906 1.036859 -0.993736 -0.606798 -1.509370 -89.851538 -0.209566 -8.296586 -1.934302 -6.264628 -5.080662 2.333032 -9.213330 12.318517 -12.633606 2.210313 0.584639 0.149702 -2.736875 -3.584965 8.483697 0.009004 -0.216149 0.034432 13.880837 9.998558 10.134150 12.976270 1.420388 0.906087 5.700831 -1.516495 -7.361768 0.069730 0.328783 0.017101
-17.368124 88.375130 1.742675 -141.754268 -11.054619 0.263553 1.725216 5.025470 1.022530 0.954577 2.861050 0.679225 1.198898 3.574496 0.856750 0.954577 2.861050 0.679225 -5.147349 14.519988 -0.479873 -5.375606 -10.386963 0.673178 -0.741525 0.700446 -3.195151 -8.938108 1.478202 87.462636 6.938154 -4.423902 3.160626 0.552831 -6.921546 1.488042 -2.988026 1.040976 -0.997477 -0.615669 -1.513766 -89.839459 -0.225412 -8.279166 -1.943070 -6.259749 -5.060170 2.319565 -9.222601 12.322647 -12.657078 2.220802 0.596141 0.151994 -2.740866 -3.595091 8.487027 0.010128 -0.218443 0.033396 13.877398 10.017143 10.124260 12.983799 1.416906 0.902449 5.695277 -1.519489 -7.353074 0.068920 0.329122 0.015816
-17.378522 88.373626 1.743534 -141.754043 -11.057302 0.272335 1.727217 5.023674 1.022620 0.955092 2.859968 0.679234 1.199539 3.573143 0.856763 0.955092 2.859968 0.679234 -5.145937 14.530451 -0.482154 -5.373454 -10.375990 0.670390 -0.742727 0.702981 -3.182747 -8.936960 1.469376 87.447326 6.925246 -4.423825 3.155306 0.550571 -6.917549 1.491369 -2.995487 1.046246 -1.001462 -0.627714 -1.520688 -89.827759 -0.244567 -8.247747 -1.943643 -6.250682 -5.029668 2.304942 -9.227350 12.322189 -12.676237 2.232619 0.606835 0.151333 -2.752224 -3.604262 8.490309 0.011361 -0.220269 0.033630 13.880890 10.027980 10.113946 12.986386 1.414376 0.899523 5.691016 -1.523068 -7.345738 0.068609 0.330037 0.016101
-17.388459 88.372028 1.744446 -141.752011 -11.054327 0.277769 1.728103 5.020437 1.023421 0.955165 2.857714 0.680002 1.199632 3.570323 0.857718 0.955165 2.857714 0.680002 -5.144061 14.541410 -0.484637 -5.370738 -10.364511 0.667276 -0.744806 0.707693 -3.173235 -8.936464 1.457782 87.434535 6.912958 -4.421027 3.152399 0.549739 -6.909784 1.489911 -3.000648 1.049001 -1.006271 -0.642839 -1.528725 -89.819530 -0.266581 -8.203808 -1.933138 -6.236528 -4.986639 2.290592 -9.229328 12.317387 -12.687814 2.242558 0.617442 0.150324 -2.775520 -3.611944 8.490851 0.011329 -0.221308 0.034436 13.888447 10.032179 10.106329 12.983577 1.410196 0.895160 5.689383 -1.526630 -7.337200 0.068791 0.332307 0.016425
-17.398350 88.370457 1.745117 -141.750460 -11.048287 0.280971 1.729430 5.016065 1.024545 0.955673 2.854749 0.681460 1.200272 3.566612 0.859536 0.955673 2.854749 0.681460 -5.142851 14.551760 -0.486426 -5.368930 -10.353643 0.665061 -0.746415 0.716956 -3.166315 -8.938727 1.441529 87.426793 6.900290 -4.415018 3.147934 0.552310 -6.903009 1.485660 -3.003834 1.050468 -1.010321 -0.661575 -1.539871 -89.816395 -0.288262 -8.148836 -1.911598 -6.217332 -4.931784 2.274676 -9.228252 12.310600 -12.696586 2.248870 0.627476 0.149114 -2.793488 -3.618530 8.492545 0.010929 -0.223233 0.034473 13.897874 10.033203 10.101467 12.975514 1.405877 0.889713 5.690352 -1.530602 -7.328669 0.068847 0.334738 0.016571
-17.408934 88.369031 1.745423 -141.750663 -11.042502 0.285006 1.731196 5.010762 1.025081 0.956602 2.851598 0.682732 1.201437 3.562668 0.861125 0.956602 2.851598 0.682732 -5.141779 14.561424 -0.487485 -5.367450 -10.343489 0.663658 -0.746647 0.731945 -3.158786 -8.939350 1.419459 87.422749 6.886364 -4.408613 3.138461 0.557446 -6.902854 1.483310 -3.004957 1.053463 -1.013275 -0.684117 -1.556184 -89.817464 -0.308503 -8.088989 -1.882142 -6.190613 -4.868445 2.256519 -9.226321 12.304500 -12.709181 2.252467 0.636577 0.148793 -2.796847 -3.625019 8.496983 0.011365 -0.226507 0.033616 13.906719 10.036622 10.095923 12.963008 1.399863 0.884370 5.696773 -1.532958 -7.322517 0.068542 0.335982 0.017968
-17.420552 88.367767 1.745462 -141.749645 -11.038005 0.291315 1.731382 5.005079 1.024633 0.956803 2.848824 0.683649 1.201689 3.559198 0.862265 0.956803 2.848824 0.683649 -5.140511 14.569218 -0.489249 -5.365594 -10.335321 0.661462 -0.746591 0.746969 -3.150223 -8.933764 1.397720 87.418614 6.874168 -4.406303 3.127046 0.558693 -6.906288 1.483977 -3.003927 1.057855 -1.017440 -0.708357 -1.578189 -89.820334 -0.325834 -8.026717 -1.848788 -6.158195 -4.804364 2.236853 -9.228307 12.300218 -12.726905 2.255154 0.644245 0.150728 -2.796290 -3.631881 8.502092 0.012009 -0.229643 0.032076 13.912637 10.045408 10.087489 12.951098 1.388230 0.878198 5.704894 -1.531330 -7.316769 0.067851 0.336062 0.019982
-17.433064 88.366618 1.745317 -141.745383 -11.034191 0.299558 1.730585 4.999677 1.023127 0.956418 2.846549 0.684005 1.201205 3.556354 0.862701 0.956418 2.846549 0.684005 -5.140227 14.574485 -0.490989 -5.364847 -10.329782 0.659528 -0.746803 0.757653 -3.138222 -8.927517 1.382054 87.409469 6.866249 -4.408597 3.119384 0.553841 -6.906904 1.483216 -3.004679 1.062483 -1.021728 -0.730419 -1.605585 -89.823985 -0.338437 -7.964903 -1.813898 -6.124184 -4.744091 2.212930 -9.236391 12.297739 -12.749713 2.255865 0.649393 0.153677 -2.788368 -3.638735 8.508287 0.012988 -0.233230 0.030502 13.914800 10.058179 10.076857 12.944711 1.371831 0.869866 5.708537 -1.526659 -7.309442 0.067266 0.335534 0.021659
